<?xml version="1.0" standalone="no"?>
<!DOCTYPE svg PUBLIC "-//W3C//DTD SVG 20010904//EN"
 "http://www.w3.org/TR/2001/REC-SVG-20010904/DTD/svg10.dtd">
<svg version="1.0" xmlns="http://www.w3.org/2000/svg"
 width="880.000000pt" height="880.000000pt" viewBox="0 0 880.000000 880.000000"
 preserveAspectRatio="xMidYMid meet">
<metadata>
Created by potrace 1.11, written by Peter Selinger 2001-2013
</metadata>
<g transform="translate(0.000000,880.000000) scale(0.100000,-0.100000)"
fill="#000000" stroke="none">
<path d="M1635 6643 c-524 -68 -960 -383 -1149 -831 -114 -272 -152 -593 -111
-944 124 -1065 870 -1668 2158 -1746 l119 -7 27 -71 c15 -39 53 -120 85 -178
219 -415 580 -856 881 -1079 88 -64 253 -149 327 -166 33 -8 419 -11 1291 -11
1216 0 1246 0 1323 20 548 141 1096 929 1510 2175 355 1069 492 2153 330 2600
-33 92 -86 159 -151 190 l-53 26 -604 -30 c-947 -48 -1484 -69 -2128 -84 l-95
-2 -3 -762 c-1 -420 -4 -763 -7 -763 -3 0 -48 21 -100 47 l-95 48 -1 675 c0
371 -1 693 -2 715 l-2 40 -390 7 c-504 8 -1887 73 -2625 123 -206 14 -461 18
-535 8z m295 -686 c0 -29 51 -427 70 -544 75 -464 183 -876 373 -1416 l56
-158 -37 7 c-593 100 -937 275 -1141 579 -184 276 -270 700 -200 993 6 26 31
89 55 141 37 79 57 106 126 176 69 68 99 90 178 128 106 51 223 83 356 96 138
13 164 13 164 -2z m3070 -911 c80 -37 149 -72 153 -76 5 -4 -32 -89 -82 -189
-82 -163 -94 -181 -116 -181 -62 0 -142 -56 -177 -124 -31 -58 -31 -146 0
-205 l23 -43 -153 -313 c-151 -312 -152 -314 -187 -320 -114 -21 -191 -113
-191 -227 1 -69 27 -125 79 -170 116 -99 281 -64 352 74 34 66 20 187 -27 239
-14 16 -2 44 135 326 l151 308 47 5 c27 3 65 15 87 28 l38 23 165 -81 c121
-60 177 -94 214 -129 46 -44 49 -51 49 -97 0 -87 -41 -197 -183 -495 l-75
-156 -45 -7 c-147 -22 -235 -188 -169 -321 57 -117 206 -166 313 -103 56 33
73 52 100 113 28 63 22 149 -13 203 l-25 36 75 156 c157 329 202 457 202 570
-2 167 -81 251 -376 396 l-151 75 -6 39 c-5 37 -19 72 -46 115 -12 19 -3 40
75 197 l89 177 505 -245 c322 -157 521 -259 550 -283 92 -77 140 -229 111
-348 -7 -26 -171 -374 -364 -772 -389 -801 -390 -803 -505 -854 -79 -36 -152
-43 -227 -24 -49 13 -443 201 -1422 679 -72 35 -114 63 -143 94 -85 92 -119
224 -87 335 13 43 531 1121 691 1437 41 82 95 141 158 173 67 34 87 38 178 36
82 -2 89 -4 230 -71z"/>
</g>
</svg>
